{"title":"The Lincoln Lawyer 2011 R5 LiNE AC3 XViD DTRG - SAFCuk009","uid":6351060,"size":1829096092,"categoryP":"video","categoryS":"movies","magnet":"?xt=urn:btih:79f8c21fad8aa4962f95bde7f33a19ea1e320392&amp;dn=The+Lincoln+Lawyer+2011+R5+LiNE+AC3+XViD+DTRG+-+SAFCuk009&amp;tr=udp%3A%2F%2Ftracker.openbittorrent.com%3A80&amp;tr=udp%3A%2F%2Fopen.demonii.com%3A1337&amp;tr=udp%3A%2F%2Ftracker.coppersurfer.tk%3A6969&amp;tr=udp%3A%2F%2Fexodus.desync.com%3A6969","seeders":0,"leechers":0,"uploader":"SAFCukO09","files":4,"time":1303999851,"description":"Format                           : AVI\nFormat/Info                      : Audio Video Interleave\nFile size                        : 1.70 GiB\nDuration                         : 1h 48mn\nOverall bit rate                 : 2 235 Kbps\nWriting application              : VirtualDubMod 1.5.10.3 | www.virtualdub-fr.org || (build 2550/release)\nWriting library                  : VirtualDubMod build 2550/release\n\nVideo\nID                               : 0\nFormat                           : MPEG-4 Visual\nFormat profile                   : Advanced Simple@L5\nFormat settings, BVOP            : Yes\nFormat settings, QPel            : Yes\nFormat settings, GMC             : No warppoints\nFormat settings, Matrix          : Default (H.263)\nMuxing mode                      : Packed bitstream\nCodec ID                         : XVID\nCodec ID/Hint                    : XviD\nDuration                         : 1h 48mn\nBit rate                         : 1 778 Kbps\nWidth                            : 720 pixels\nHeight                           : 304 pixels\nDisplay aspect ratio             : 2.35:1\nFrame rate                       : 25.000 fps\nColor space                      : YUV\nChroma subsampling               : 4:2:0\nBit depth                        : 8 bits\nScan type                        : Progressive\nBits/(Pixel*Frame)               : 0.325\nStream size                      : 1.35 GiB (80%)\nWriting library                  : XviD 1.2.1 (UTC 2008-12-04)\n\nAudio\nID                               : 1\nFormat                           : AC-3\nFormat/Info                      : Audio Coding 3\nMode extension                   : CM (complete main)\nCodec ID                         : 2000\nDuration                         : 1h 48mn\nBit rate mode                    : Constant\nBit rate                         : 448 Kbps\nChannel(s)                       : 6 channels\nChannel positions                : Front: L C R, Side: L R, LFE\nSampling rate                    : 48.0 KHz\nBit depth                        : 16 bits\nStream size                      : 349 MiB (20%)\nAlignment                        : Split accross interleaves\nInterleave, duration             : 40 ms (1.00 video frame)\nInterleave, preload duration     : 500 ms\n\n\n\n &lt;a href=&quot;\nhttp://www.imdb.com/title/tt1189340/&quot; rel=&quot;nofollow&quot; target=&quot;_NEW&quot;&gt;\nhttp://www.imdb.com/title/tt1189340/&lt;/a&gt;\n\n\n\n\n\nStoryline\n\nMatt Haller is a defense lawyer who works out of his Lincoln. When a wealthy Realtor is accused of raping a prostitute, Haller is asked to defend him. The man claims that the woman is trying to get some money out of him. But when Haller looks at the evidence against him, he learns that this case might be linked to an old case of his. \n\n\n\n\n\n\n\n &lt;a href=&quot;\nhttp://img155.imageshack.us/img155/8711/vlcsnap2011042807h29m01.png&quot; rel=&quot;nofollow&quot; target=&quot;_NEW&quot;&gt;\nhttp://img155.imageshack.us/img155/8711/vlcsnap2011042807h29m01.png&lt;/a&gt;\n &lt;a href=&quot;\nhttp://img715.imageshack.us/img715/6471/vlcsnap2011042807h29m25.png&quot; rel=&quot;nofollow&quot; target=&quot;_NEW&quot;&gt;\nhttp://img715.imageshack.us/img715/6471/vlcsnap2011042807h29m25.png&lt;/a&gt;\n &lt;a href=&quot;\nhttp://img151.imageshack.us/img151/8263/vlcsnap2011042807h29m45.png&quot; rel=&quot;nofollow&quot; target=&quot;_NEW&quot;&gt;\nhttp://img151.imageshack.us/img151/8263/vlcsnap2011042807h29m45.png&lt;/a&gt;\n\n\n\n\nSOURCES:\n\n\n\nVIDEO: .......... Linkoln.dlja.advokata.2011.D.DVD.ELEKTRI4KA .........Thanks \n\nAUDIO: ......... IMAGiNE + conebone ..............................................Thanks\n\nMy take on it enjoy !\n\n\n\n\n\nGreetz to Imagine ,Flawl3ss,DiLLoN,BDK,NOiR,TOXiCiNK,THC,Ez,Rx,Boobyblue,TaRiQ786,LKRG\n\n\n\n\n\n","torrent":{"xt":"urn:btih:79f8c21fad8aa4962f95bde7f33a19ea1e320392","amp;dn":"The+Lincoln+Lawyer+2011+R5+LiNE+AC3+XViD+DTRG+-+SAFCuk009","amp;tr":["udp%3A%2F%2Ftracker.openbittorrent.com%3A80","udp%3A%2F%2Fopen.demonii.com%3A1337","udp%3A%2F%2Ftracker.coppersurfer.tk%3A6969","udp%3A%2F%2Fexodus.desync.com%3A6969"],"infoHash":"79f8c21fad8aa4962f95bde7f33a19ea1e320392","infoHashBuffer":{"type":"Buffer","data":[121,248,194,31,173,138,164,150,47,149,189,231,243,58,25,234,30,50,3,146]},"announce":[],"urlList":[]}}